<svg width="168" height="34" viewBox="0 0 168 34" fill="none" xmlns="http://www.w3.org/2000/svg">
<g clip-path="url(#clip0_6387_32192)">
<path d="M13.6818 0.0253906C16.8589 0.0253906 19.2949 0.865391 20.9848 2.54039C22.6747 4.21539 23.5196 6.55039 23.5196 9.55039C23.5196 11.5804 23.238 13.3354 22.6797 14.8204C22.1213 16.3004 21.3208 17.5204 20.2782 18.4704C19.2357 19.4204 17.9855 20.1204 16.5229 20.5704C15.0604 21.0204 13.4298 21.2454 11.6213 21.2454H8.15259L6.32436 34.2454H0.0292969L4.79753 0.0253906H13.6818ZM11.7349 14.8604C13.3853 14.8604 14.7046 14.5304 15.6829 13.8654C16.6613 13.2004 17.1505 12.0254 17.1505 10.3404C17.1505 9.59539 17.0418 8.97039 16.8244 8.47039C16.6069 7.97039 16.3105 7.57039 15.93 7.28039C15.5495 6.99039 15.09 6.78539 14.5564 6.67539C14.0227 6.56539 13.4397 6.50539 12.8022 6.50539H10.2081L9.02718 14.8654H11.7349V14.8604Z" fill="black"/>
<path d="M46.6297 34.2404H39.46L34.924 20.4654H32.3299L30.5017 34.2404H24.3252L29.0885 0.0253906H38.3186C41.2932 0.0253906 43.6106 0.82039 45.2758 2.41539C46.941 4.01039 47.776 6.24039 47.776 9.11039C47.776 11.9804 47.1781 14.1454 45.9824 15.9004C44.7866 17.6554 43.1708 18.8554 41.14 19.5004L46.6297 34.2404ZM35.9913 14.6654C37.696 14.6654 39.0153 14.3154 39.9591 13.6104C40.8979 12.9054 41.3723 11.7854 41.3723 10.2454C41.3723 8.83539 40.977 7.87539 40.1913 7.36539C39.4007 6.85539 38.3483 6.59539 37.024 6.59539H34.3163L33.1699 14.6654H35.9913Z" fill="black"/>
<path d="M49.3379 34.2404L54.1061 0.0253906H60.4753L55.7071 34.2404H49.3379Z" fill="black"/>
<path d="M78.204 34.2404L70.7675 11.5254H70.6538L67.6051 34.2404H61.3496L66.1178 0.0253906H73.248L80.6449 22.5954H80.719L83.7727 0.0253906H90.0282L85.26 34.2404H78.204Z" fill="black"/>
<path d="M106.157 6.93539L102.342 34.2404H96.0124L99.7874 6.93539H92.2373L93.2305 0.0253906H114.512L113.558 6.93539H106.162H106.157Z" fill="black"/>
<path d="M127.245 6.93539L123.431 34.2404H117.101L120.876 6.93539H113.326L114.319 0.0253906H135.601L134.647 6.93539H127.25H127.245Z" fill="black"/>
<path d="M133.614 34.2404L138.382 0.0253906H144.752L139.983 34.2404H133.614Z" fill="black"/>
<path d="M145.626 34.2404L150.394 0.0253906H167.669L166.715 6.89039H155.503L154.589 13.5104H165.267L164.353 19.9854H153.675L152.682 27.3304H164.961L164.007 34.2404H145.626Z" fill="black"/>
</g>
<defs>
<clipPath id="clip0_6387_32192">
<rect width="168" height="34" fill="white"/>
</clipPath>
</defs>
</svg>
