<svg width="24" height="25" viewBox="0 0 24 25" fill="none" xmlns="http://www.w3.org/2000/svg">
<path d="M2 21.5C2.00012 20.241 2.29739 18.9997 2.86766 17.8772C3.43792 16.7548 4.26506 15.7827 5.28182 15.0402C6.29858 14.2976 7.47624 13.8056 8.71904 13.604C9.96183 13.4024 11.2347 13.4969 12.434 13.88M19.5 14.8L19.1 15.7M16.9 21.3L16.5 22.2001M21.7001 20.0001L20.8 19.6001M15.2 17.4L14.3 17M21.7001 17L20.8 17.4M15.2 19.6001L14.3 20.0001M19.5 22.2001L19.1 21.3M16.9 15.7L16.5 14.8M15 8.5C15 11.2614 12.7614 13.5 10 13.5C7.23858 13.5 5 11.2614 5 8.5C5 5.73858 7.23858 3.5 10 3.5C12.7614 3.5 15 5.73858 15 8.5ZM21 18.5C21 20.1569 19.6569 21.5 18 21.5C16.3431 21.5 15 20.1569 15 18.5C15 16.8431 16.3431 15.5 18 15.5C19.6569 15.5 21 16.8431 21 18.5Z" stroke="white" stroke-width="2" stroke-linecap="round" stroke-linejoin="round"/>
</svg>
