<svg width="24" height="25" viewBox="0 0 24 25" fill="none" xmlns="http://www.w3.org/2000/svg">
<path d="M21 15.7763L17.914 12.6903C17.5389 12.3154 17.0303 12.1047 16.5 12.1047C15.9697 12.1047 15.4611 12.3154 15.086 12.6903L6 21.7763M5 3.77637H19C20.1046 3.77637 21 4.6718 21 5.77637V19.7764C21 20.8809 20.1046 21.7764 19 21.7764H5C3.89543 21.7764 3 20.8809 3 19.7764V5.77637C3 4.6718 3.89543 3.77637 5 3.77637ZM11 9.77637C11 10.8809 10.1046 11.7764 9 11.7764C7.89543 11.7764 7 10.8809 7 9.77637C7 8.6718 7.89543 7.77637 9 7.77637C10.1046 7.77637 11 8.6718 11 9.77637Z" stroke="white" stroke-width="2" stroke-linecap="round" stroke-linejoin="round"/>
</svg>
