<svg width="32" height="32" viewBox="0 0 32 32" fill="none" xmlns="http://www.w3.org/2000/svg">
<path d="M17.3337 6.66666V9.33332M17.3337 22.6667V25.3333M17.3337 14.6667V17.3333M2.66699 12C3.72786 12 4.74527 12.4214 5.49542 13.1716C6.24556 13.9217 6.66699 14.9391 6.66699 16C6.66699 17.0609 6.24556 18.0783 5.49542 18.8284C4.74527 19.5786 3.72786 20 2.66699 20V22.6667C2.66699 23.3739 2.94794 24.0522 3.44804 24.5523C3.94814 25.0524 4.62641 25.3333 5.33366 25.3333H26.667C27.3742 25.3333 28.0525 25.0524 28.5526 24.5523C29.0527 24.0522 29.3337 23.3739 29.3337 22.6667V20C28.2728 20 27.2554 19.5786 26.5052 18.8284C25.7551 18.0783 25.3337 17.0609 25.3337 16C25.3337 14.9391 25.7551 13.9217 26.5052 13.1716C27.2554 12.4214 28.2728 12 29.3337 12V9.33332C29.3337 8.62608 29.0527 7.9478 28.5526 7.4477C28.0525 6.94761 27.3742 6.66666 26.667 6.66666H5.33366C4.62641 6.66666 3.94814 6.94761 3.44804 7.4477C2.94794 7.9478 2.66699 8.62608 2.66699 9.33332V12Z" stroke="black" stroke-width="3" stroke-linecap="round" stroke-linejoin="round"/>
</svg>
