<svg width="24" height="25" viewBox="0 0 24 25" fill="none" xmlns="http://www.w3.org/2000/svg">
<path d="M13 5.77631V7.77631M13 17.7763V19.7763M13 11.7763V13.7763M2 9.77631C2.79565 9.77631 3.55871 10.0924 4.12132 10.655C4.68393 11.2176 5 11.9807 5 12.7763C5 13.572 4.68393 14.335 4.12132 14.8976C3.55871 15.4602 2.79565 15.7763 2 15.7763V17.7763C2 18.3067 2.21071 18.8154 2.58579 19.1905C2.96086 19.5656 3.46957 19.7763 4 19.7763H20C20.5304 19.7763 21.0391 19.5656 21.4142 19.1905C21.7893 18.8154 22 18.3067 22 17.7763V15.7763C21.2044 15.7763 20.4413 15.4602 19.8787 14.8976C19.3161 14.335 19 13.572 19 12.7763C19 11.9807 19.3161 11.2176 19.8787 10.655C20.4413 10.0924 21.2044 9.77631 22 9.77631V7.77631C22 7.24587 21.7893 6.73717 21.4142 6.36209C21.0391 5.98702 20.5304 5.77631 20 5.77631H4C3.46957 5.77631 2.96086 5.98702 2.58579 6.36209C2.21071 6.73717 2 7.24587 2 7.77631V9.77631Z" stroke="white" stroke-width="2" stroke-linecap="round" stroke-linejoin="round"/>
</svg>
