<svg width="24" height="25" viewBox="0 0 24 25" fill="none" xmlns="http://www.w3.org/2000/svg">
<path d="M5.14325 17.5283H4.22896C3.21907 17.5283 2.40039 16.7096 2.40039 15.6997V7.47115C2.40039 6.46126 3.21907 5.64258 4.22896 5.64258H12.4575C13.4674 5.64258 14.2861 6.46126 14.2861 7.47115V15.6997C14.2861 16.7096 13.4674 17.5283 12.4575 17.5283H11.5432M15.6575 17.5283H15.2004C14.6954 17.5283 14.2861 17.119 14.2861 16.614V8.84258C14.2861 8.33763 14.6954 7.92829 15.2004 7.92829H17.5038C17.7816 7.92829 18.0442 8.05455 18.2178 8.27143L21.4 12.2493C21.5297 12.4114 21.6004 12.6128 21.6004 12.8204V16.614C21.6004 17.119 21.191 17.5283 20.6861 17.5283M10.629 17.0711C10.629 18.3335 9.60561 19.3569 8.34325 19.3569C7.08088 19.3569 6.05753 18.3335 6.05753 17.0711C6.05753 15.8088 7.08088 14.7854 8.34325 14.7854C9.60561 14.7854 10.629 15.8088 10.629 17.0711ZM20.229 17.0711C20.229 18.3335 19.2056 19.3569 17.9432 19.3569C16.6809 19.3569 15.6575 18.3335 15.6575 17.0711C15.6575 15.8088 16.6809 14.7854 17.9432 14.7854C19.2056 14.7854 20.229 15.8088 20.229 17.0711Z" stroke="black" stroke-width="2" stroke-linecap="round"/>
</svg>
