<svg width="32" height="32" viewBox="0 0 32 32" fill="none" xmlns="http://www.w3.org/2000/svg">
<path d="M16 4.00033H6.66667C5.95942 4.00033 5.28115 4.28128 4.78105 4.78137C4.28095 5.28147 4 5.95975 4 6.66699V25.3337C4 26.0409 4.28095 26.7192 4.78105 27.2193C5.28115 27.7194 5.95942 28.0003 6.66667 28.0003H25.3333C26.0406 28.0003 26.7189 27.7194 27.219 27.2193C27.719 26.7192 28 26.0409 28 25.3337V16.0003M24.5 3.5003C25.0304 2.96987 25.7498 2.67188 26.5 2.67188C27.2501 2.67188 27.9695 2.96987 28.5 3.5003C29.0304 4.03074 29.3284 4.75016 29.3284 5.5003C29.3284 6.25045 29.0304 6.96987 28.5 7.5003L16.4826 19.519C16.166 19.8353 15.7749 20.0669 15.3453 20.1923L11.5146 21.3123C11.3999 21.3458 11.2783 21.3478 11.1625 21.3181C11.0467 21.2885 10.9411 21.2282 10.8566 21.1437C10.7721 21.0592 10.7118 20.9535 10.6822 20.8378C10.6525 20.722 10.6545 20.6004 10.688 20.4856L11.808 16.655C11.934 16.2257 12.166 15.835 12.4826 15.519L24.5 3.5003Z" stroke="black" stroke-width="3" stroke-linecap="round" stroke-linejoin="round"/>
</svg>
