<svg width="24" height="25" viewBox="0 0 24 25" fill="none" xmlns="http://www.w3.org/2000/svg">
<path d="M12 3.77661H5C4.46957 3.77661 3.96086 3.98732 3.58579 4.3624C3.21071 4.73747 3 5.24618 3 5.77661V19.7766C3 20.307 3.21071 20.8158 3.58579 21.1908C3.96086 21.5659 4.46957 21.7766 5 21.7766H19C19.5304 21.7766 20.0391 21.5659 20.4142 21.1908C20.7893 20.8158 21 20.307 21 19.7766V12.7766M18.375 3.40159C18.7728 3.00377 19.3124 2.78027 19.875 2.78027C20.4376 2.78027 20.9771 3.00377 21.375 3.40159C21.7728 3.79942 21.9963 4.33898 21.9963 4.90159C21.9963 5.4642 21.7728 6.00377 21.375 6.40159L12.362 15.4156C12.1245 15.6528 11.8312 15.8265 11.509 15.9206L8.63597 16.7606C8.54992 16.7857 8.45871 16.7872 8.37188 16.7649C8.28505 16.7427 8.2058 16.6975 8.14242 16.6341C8.07904 16.5708 8.03386 16.4915 8.01162 16.4047C7.98937 16.3179 7.99087 16.2266 8.01597 16.1406L8.85597 13.2676C8.9505 12.9456 9.12451 12.6527 9.36197 12.4156L18.375 3.40159Z" stroke="white" stroke-width="2" stroke-linecap="round" stroke-linejoin="round"/>
</svg>
