<svg width="32" height="32" viewBox="0 0 32 32" fill="none" xmlns="http://www.w3.org/2000/svg">
<path d="M18.667 24.0002V8.00016C18.667 7.29292 18.386 6.61464 17.8859 6.11454C17.3858 5.61445 16.7076 5.3335 16.0003 5.3335H5.33366C4.62641 5.3335 3.94814 5.61445 3.44804 6.11454C2.94794 6.61464 2.66699 7.29292 2.66699 8.00016V22.6668C2.66699 23.0205 2.80747 23.3596 3.05752 23.6096C3.30756 23.8597 3.6467 24.0002 4.00033 24.0002H6.66699M6.66699 24.0002C6.66699 25.4729 7.8609 26.6668 9.33366 26.6668C10.8064 26.6668 12.0003 25.4729 12.0003 24.0002M6.66699 24.0002C6.66699 22.5274 7.8609 21.3335 9.33366 21.3335C10.8064 21.3335 12.0003 22.5274 12.0003 24.0002M20.0003 24.0002H12.0003M20.0003 24.0002C20.0003 25.4729 21.1942 26.6668 22.667 26.6668C24.1398 26.6668 25.3337 25.4729 25.3337 24.0002M20.0003 24.0002C20.0003 22.5274 21.1942 21.3335 22.667 21.3335C24.1398 21.3335 25.3337 22.5274 25.3337 24.0002M25.3337 24.0002H28.0003C28.3539 24.0002 28.6931 23.8597 28.9431 23.6096C29.1932 23.3596 29.3337 23.0205 29.3337 22.6668V17.8002C29.3331 17.4976 29.2297 17.2042 29.0403 16.9682L24.4003 11.1682C24.2756 11.012 24.1174 10.8859 23.9374 10.7991C23.7574 10.7123 23.5602 10.6671 23.3603 10.6668H18.667" stroke="black" stroke-width="3" stroke-linecap="round" stroke-linejoin="round"/>
</svg>
