<svg width="24" height="25" viewBox="0 0 24 25" fill="none" xmlns="http://www.w3.org/2000/svg">
<path d="M14 18.7764V6.77637C14 6.24593 13.7893 5.73723 13.4142 5.36215C13.0391 4.98708 12.5304 4.77637 12 4.77637H4C3.46957 4.77637 2.96086 4.98708 2.58579 5.36215C2.21071 5.73723 2 6.24593 2 6.77637V17.7764C2 18.0416 2.10536 18.2959 2.29289 18.4835C2.48043 18.671 2.73478 18.7764 3 18.7764H5M5 18.7764C5 19.8809 5.89543 20.7764 7 20.7764C8.10457 20.7764 9 19.8809 9 18.7764M5 18.7764C5 17.6718 5.89543 16.7764 7 16.7764C8.10457 16.7764 9 17.6718 9 18.7764M15 18.7764H9M15 18.7764C15 19.8809 15.8954 20.7764 17 20.7764C18.1046 20.7764 19 19.8809 19 18.7764M15 18.7764C15 17.6718 15.8954 16.7764 17 16.7764C18.1046 16.7764 19 17.6718 19 18.7764M19 18.7764H21C21.2652 18.7764 21.5196 18.671 21.7071 18.4835C21.8946 18.2959 22 18.0416 22 17.7764V14.1264C21.9996 13.8994 21.922 13.6794 21.78 13.5024L18.3 9.15237C18.2065 9.03525 18.0878 8.94065 17.9528 8.87557C17.8178 8.81048 17.6699 8.77658 17.52 8.77637H14" stroke="white" stroke-width="2" stroke-linecap="round" stroke-linejoin="round"/>
</svg>
