<svg width="24" height="25" viewBox="0 0 24 25" fill="none" xmlns="http://www.w3.org/2000/svg">
<path d="M21.2099 16.666C20.5737 18.1704 19.5787 19.4962 18.3118 20.5273C17.0449 21.5583 15.5447 22.2634 13.9424 22.5807C12.34 22.8981 10.6843 22.8181 9.12006 22.3478C7.55578 21.8774 6.13054 21.031 4.96893 19.8826C3.80733 18.7342 2.94473 17.3187 2.45655 15.7599C1.96837 14.2011 1.86948 12.5464 2.16851 10.9406C2.46755 9.33474 3.15541 7.82658 4.17196 6.54799C5.18851 5.26939 6.5028 4.25927 7.99992 3.60596M21 12.7758C21.552 12.7758 22.005 12.3268 21.95 11.7778C21.7195 9.48197 20.7021 7.3365 19.0703 5.70512C17.4386 4.07374 15.2929 3.05683 12.997 2.8268C12.447 2.7718 11.999 3.2248 11.999 3.7768V11.7768C11.999 12.042 12.1044 12.2964 12.2919 12.4839C12.4795 12.6714 12.7338 12.7768 12.999 12.7768L21 12.7758Z" stroke="white" stroke-width="2" stroke-linecap="round" stroke-linejoin="round"/>
</svg>
