<svg width="24" height="25" viewBox="0 0 24 25" fill="none" xmlns="http://www.w3.org/2000/svg">
<path d="M11.5248 3.07126C11.5687 2.98272 11.6364 2.90819 11.7203 2.85609C11.8042 2.80398 11.9011 2.77637 11.9998 2.77637C12.0986 2.77637 12.1955 2.80398 12.2794 2.85609C12.3633 2.90819 12.431 2.98272 12.4748 3.07126L14.7848 7.75026C14.937 8.05823 15.1617 8.32467 15.4395 8.52671C15.7173 8.72876 16.04 8.86037 16.3798 8.91026L21.5458 9.66626C21.6437 9.68044 21.7357 9.72173 21.8113 9.78546C21.887 9.84919 21.9433 9.93281 21.9739 10.0269C22.0045 10.1209 22.0081 10.2217 21.9844 10.3177C21.9607 10.4137 21.9107 10.5012 21.8398 10.5703L18.1038 14.2083C17.8575 14.4484 17.6731 14.7447 17.5667 15.0719C17.4602 15.399 17.4349 15.7471 17.4928 16.0863L18.3748 21.2263C18.3921 21.3241 18.3816 21.4248 18.3443 21.5169C18.3071 21.6091 18.2448 21.6889 18.1644 21.7473C18.084 21.8056 17.9888 21.8403 17.8897 21.8472C17.7906 21.8541 17.6915 21.833 17.6038 21.7863L12.9858 19.3583C12.6816 19.1985 12.343 19.115 11.9993 19.115C11.6557 19.115 11.3171 19.1985 11.0128 19.3583L6.39585 21.7863C6.30818 21.8327 6.20924 21.8535 6.1103 21.8465C6.01135 21.8395 5.91636 21.8048 5.83614 21.7465C5.75592 21.6881 5.69368 21.6084 5.6565 21.5165C5.61933 21.4245 5.6087 21.324 5.62585 21.2263L6.50685 16.0873C6.56504 15.748 6.53983 15.3997 6.43338 15.0723C6.32694 14.745 6.14245 14.4484 5.89585 14.2083L2.15985 10.5713C2.08844 10.5023 2.03784 10.4147 2.01381 10.3183C1.98978 10.222 1.99328 10.1209 2.02393 10.0265C2.05457 9.93202 2.11111 9.8481 2.18712 9.78424C2.26313 9.72039 2.35555 9.67916 2.45385 9.66526L7.61885 8.91026C7.9591 8.86076 8.28224 8.72932 8.56043 8.52725C8.83863 8.32518 9.06355 8.05853 9.21585 7.75026L11.5248 3.07126Z" stroke="white" stroke-width="2" stroke-linecap="round" stroke-linejoin="round"/>
</svg>
